<svg xmlns="http://www.w3.org/2000/svg" xmlns:xlink="http://www.w3.org/1999/xlink" viewBox="0 0 658 653"><defs><style>.cls-1,.cls-2{fill:none;}.cls-1,.cls-2,.cls-4,.cls-5{stroke:#fff;stroke-miterlimit:10;}.cls-2,.cls-5{stroke-width:3px;}.cls-3{font-size:42.07px;}.cls-3,.cls-4,.cls-5,.cls-7{fill:#fff;}.cls-3,.cls-7{font-family:Rockwell-Bold, Rockwell;font-weight:700;}.cls-4{stroke-width:5px;}.cls-6{clip-path:url(#clip-path);}.cls-7{font-size:30px;}.cls-8{letter-spacing:-0.01em;}.cls-9{letter-spacing:-0.09em;}.cls-10{clip-path:url(#clip-path-2);}</style><clipPath id="clip-path"><ellipse class="cls-1" cx="301.71" cy="218.68" rx="50.74" ry="35.59" transform="translate(-42.34 361.8) rotate(-58.52)"/></clipPath><clipPath id="clip-path-2"><ellipse class="cls-1" cx="214.75" cy="214.47" rx="35.59" ry="50.74" transform="translate(-64.3 95.12) rotate(-21.81)"/></clipPath></defs><g id="White_on_Black" data-name="White on Black"><g id="Border"><circle class="cls-2" cx="332" cy="323" r="309.5"/><path class="cls-2" d="M331.5,567a243.5,243.5,0,1,1,172.18-71.32A241.91,241.91,0,0,1,331.5,567Z"/><text class="cls-3" transform="translate(73.86 343.66) rotate(-89.83) scale(1.02 1)">B</text><text class="cls-3" transform="matrix(0.13, -1.01, 0.99, 0.12, 73.91, 312.64)">E</text><text class="cls-3" transform="translate(77.38 282.77) rotate(-75.54) scale(1.02 1)">D</text><text class="cls-3" transform="translate(86.15 249.18) rotate(-68.73) scale(1.02 1)">F</text><text class="cls-3" transform="translate(95.59 223.66) rotate(-61.69) scale(1.02 1)">O</text><text class="cls-3" transform="matrix(0.6, -0.82, 0.81, 0.59, 113.43, 190.65)">R</text><text class="cls-3" transform="translate(132.62 163.93) rotate(-46.43) scale(1.02 1)">D</text><text class="cls-3" transform="matrix(0.76, -0.67, 0.66, 0.75, 157.84, 138.2)"> </text><text class="cls-3" transform="translate(165.84 130.59) rotate(-36.55) scale(1.02 1)">B</text><text class="cls-3" transform="translate(190.51 112.29) rotate(-30.2) scale(1.02 1)">L</text><text class="cls-3" transform="translate(214.61 98.11) rotate(-24.06) scale(1.02 1)">U</text><text class="cls-3" transform="translate(242.56 85.63) rotate(-17.71) scale(1.02 1)">F</text><text class="cls-3" transform="translate(269.96 76.84) rotate(-11.44) scale(1.02 1)">F</text><text class="cls-3" transform="translate(298.25 71.2) rotate(-5.63) scale(1.02 1)">S</text><text class="cls-3" transform="translate(322.3 69.04) rotate(-1.72) scale(1.02 1)"> </text><text class="cls-3" transform="matrix(1.02, 0.04, -0.04, 1, 333.4, 68.46)">S</text><text class="cls-3" transform="matrix(1, 0.17, -0.17, 0.99, 356.26, 68.53)">W</text><text class="cls-3" transform="translate(400.52 76.79) rotate(16.52) scale(1.02 1)">I</text><text class="cls-3" transform="translate(418.22 81.03) rotate(23.66) scale(1.02 1)">M</text><text class="cls-3" transform="matrix(0.88, 0.51, -0.5, 0.86, 461.29, 100.97)"> </text><text class="cls-3" transform="matrix(0.83, 0.58, -0.57, 0.82, 471.03, 106.09)">A</text><text class="cls-3" transform="translate(496.92 123.96) rotate(42.68) scale(1.02 1)">N</text><text class="cls-3" transform="matrix(0.64, 0.79, -0.78, 0.63, 523.21, 148.12)">D</text><text class="cls-3" transform="translate(545.51 176.41) rotate(56.25) scale(1.02 1)"> </text><text class="cls-3" transform="matrix(0.5, 0.89, -0.87, 0.49, 551.02, 183.83)">T</text><text class="cls-3" transform="translate(566.07 210.44) rotate(67.35) scale(1.02 1)">E</text><text class="cls-3" transform="translate(577.86 238.04) rotate(74.78) scale(1.02 1)">N</text><text class="cls-3" transform="matrix(0.12, 1.01, -0.99, 0.12, 587.3, 272.49)">N</text><text class="cls-3" transform="matrix(0.01, 1.02, -1, 0.01, 591.27, 308.19)">I</text><text class="cls-3" transform="translate(591.69 325.95) rotate(93.9) scale(1.02 1)">S</text><line class="cls-4" x1="508.1" y1="155.85" x2="156.5" y2="492.5"/></g><g id="Ball"><path class="cls-2" d="M173.5,237.5s-11.62,12.59-4,26"/><path class="cls-2" d="M156.33,234s7.31,17-2.83,27.5"/><circle class="cls-2" cx="162.5" cy="248.5" r="16"/></g><g id="Racket"><path class="cls-5" d="M273.88,273.56c-11.47,19.35-43.94,79.94-43.94,79.94s-4.44,8-9.44,5-2-10-2-10,45.85-78.08,47-80C265.5,268.5,266.45,274.19,273.88,273.56Z"/><path class="cls-5" d="M288.29,266.52c-5.71,1-11.62,2.36-13.79,6-.2.34-.41.69-.62,1.06-7.43.63-8.38-5.06-8.38-5.06,1.77-3,1-9.48,0-14.44C265.5,254.06,277.51,267.49,288.29,266.52Z"/><path class="cls-2" d="M324.5,248.5c-13,13-19,15-30,17-1.89.34-4,.65-6.21,1-10.78,1-22.79-12.46-22.79-12.46-.67-3.43-1.44-6.1-1.49-6.31-3.51-13.25-4-24.66-1.51-32.25,5-15,20-37,39-42s35.31.3,40,20C346.5,214.5,337.5,235.5,324.5,248.5Z"/><g class="cls-6"><line class="cls-1" x1="314.57" y1="164.5" x2="238.03" y2="277.5"/><line class="cls-1" x1="311.5" y1="164.5" x2="234.97" y2="277.5"/><line class="cls-1" x1="308.44" y1="164.5" x2="231.91" y2="277.5"/><line class="cls-1" x1="305.38" y1="164.5" x2="228.85" y2="277.5"/><line class="cls-1" x1="302.32" y1="164.5" x2="225.79" y2="277.5"/><line class="cls-1" x1="299.26" y1="164.5" x2="222.72" y2="277.5"/><line class="cls-1" x1="296.2" y1="164.5" x2="219.66" y2="277.5"/><line class="cls-1" x1="317.63" y1="164.5" x2="241.09" y2="277.5"/><line class="cls-1" x1="320.69" y1="164.5" x2="244.15" y2="277.5"/><line class="cls-1" x1="323.75" y1="164.5" x2="247.21" y2="277.5"/><line class="cls-1" x1="326.81" y1="164.5" x2="250.28" y2="277.5"/><line class="cls-1" x1="329.87" y1="164.5" x2="253.34" y2="277.5"/><line class="cls-1" x1="332.93" y1="164.5" x2="256.4" y2="277.5"/><line class="cls-1" x1="336" y1="164.5" x2="259.46" y2="277.5"/><line class="cls-1" x1="339.06" y1="164.5" x2="262.52" y2="277.5"/><line class="cls-1" x1="342.12" y1="164.5" x2="265.58" y2="277.5"/><line class="cls-1" x1="345.18" y1="164.5" x2="268.64" y2="277.5"/><line class="cls-1" x1="348.24" y1="164.5" x2="271.71" y2="277.5"/><line class="cls-1" x1="351.3" y1="164.5" x2="274.77" y2="277.5"/><line class="cls-1" x1="354.36" y1="164.5" x2="277.83" y2="277.5"/><line class="cls-1" x1="357.43" y1="164.5" x2="280.89" y2="277.5"/><line class="cls-1" x1="360.49" y1="164.5" x2="283.95" y2="277.5"/><line class="cls-1" x1="363.55" y1="164.5" x2="287.01" y2="277.5"/><line class="cls-1" x1="366.61" y1="164.5" x2="290.07" y2="277.5"/><line class="cls-1" x1="369.67" y1="164.5" x2="293.14" y2="277.5"/><line class="cls-1" x1="372.73" y1="164.5" x2="296.2" y2="277.5"/><line class="cls-1" x1="375.79" y1="164.5" x2="299.26" y2="277.5"/><line class="cls-1" x1="378.86" y1="164.5" x2="302.32" y2="277.5"/><line class="cls-1" x1="381.92" y1="164.5" x2="305.38" y2="277.5"/></g><ellipse class="cls-1" cx="301.71" cy="218.68" rx="50.74" ry="35.59" transform="translate(-42.34 361.8) rotate(-58.52)"/></g><g id="Swimmer"><path class="cls-4" d="M357.77,324.75,414.5,300.5s15-6,20,4-2.12,15-6.06,18.5-28.94,11.5-28.94,11.5-9,3.58-2.51,7.79,18.51,8.21,22.51,14.21,23,41,23,41,5,6-3,6-20,0-25,2-88,38-88,38-45.66,20.95-62,24c-2.1.39-11,0,3-8s78-51,106-71c2.57-1.84,16-8,10-16s-30-36-30-36S346.5,329.5,357.77,324.75Z"/><circle class="cls-4" cx="477" cy="374" r="24.5"/><path class="cls-4" d="M212.5,480.5s36.23,9,63.61,0,111.39-48,111.39-48,30-14,49-14c22,0,37,5,51,11s26,17,26,17-31-4-57-1-67,18-78,24-33,16-51.7,23c-15.08,5.64-39.3,9-72.93,9A49.85,49.85,0,0,1,212.5,480.5Z"/><path class="cls-4" d="M388.5,480.5s43-23,77-23c0,0,10,3-6,7S388.5,480.5,388.5,480.5Z"/></g><text class="cls-7" transform="translate(256.22 608.07)">E<tspan class="cls-8" x="21.69" y="0">s</tspan><tspan x="37.02" y="0">t</tspan><tspan class="cls-9" x="48.66" y="0">.</tspan><tspan x="57.57" y="0" xml:space="preserve"> 1962</tspan></text><g id="Racket-2" data-name="Racket"><path class="cls-5" d="M242.11,269.59c8.65,20.76,37.81,83,37.81,83s3.76,8.35-1.64,10.56-9.21-4.37-9.21-4.37-35.18-83.44-36-85.51C233,273.28,238.17,275.92,242.11,269.59Z"/><path class="cls-5" d="M245.08,253.83c-2.64,5.16-5.06,10.73-3.45,14.63.15.36.3.74.48,1.13-3.94,6.33-9.07,3.69-9.07,3.69-1.32-3.18-7-6.45-11.58-8.63C221.46,264.65,239.41,263.05,245.08,253.83Z"/><path class="cls-2" d="M252.28,214c2.65,18.19.66,24.2-4.31,34.21-.86,1.72-1.89,3.63-2.89,5.59-5.67,9.22-23.62,10.82-23.62,10.82-3.15-1.51-5.75-2.49-6-2.58-12.72-5.1-22.18-11.5-26.75-18.07-9-13-17.7-38.15-10.35-56.37s21.35-28.12,39.94-20.11C238.18,176.07,249.63,195.84,252.28,214Z"/><g class="cls-10"><line class="cls-1" x1="179" y1="171.78" x2="223.83" y2="300.68"/><line class="cls-1" x1="177.17" y1="174.23" x2="222" y2="303.14"/><line class="cls-1" x1="175.34" y1="176.69" x2="220.17" y2="305.59"/><line class="cls-1" x1="173.51" y1="179.14" x2="218.34" y2="308.05"/><line class="cls-1" x1="171.68" y1="181.59" x2="216.51" y2="310.5"/><line class="cls-1" x1="169.85" y1="184.05" x2="214.68" y2="312.95"/><line class="cls-1" x1="168.02" y1="186.5" x2="212.85" y2="315.41"/><line class="cls-1" x1="180.83" y1="169.32" x2="225.66" y2="298.23"/><line class="cls-1" x1="182.66" y1="166.87" x2="227.49" y2="295.78"/><line class="cls-1" x1="184.49" y1="164.41" x2="229.32" y2="293.32"/><line class="cls-1" x1="186.32" y1="161.96" x2="231.15" y2="290.87"/><line class="cls-1" x1="188.15" y1="159.51" x2="232.98" y2="288.41"/><line class="cls-1" x1="189.98" y1="157.05" x2="234.81" y2="285.96"/><line class="cls-1" x1="191.81" y1="154.6" x2="236.64" y2="283.51"/><line class="cls-1" x1="193.64" y1="152.14" x2="238.47" y2="281.05"/><line class="cls-1" x1="195.47" y1="149.69" x2="240.3" y2="278.6"/><line class="cls-1" x1="197.3" y1="147.24" x2="242.13" y2="276.14"/><line class="cls-1" x1="199.14" y1="144.78" x2="243.96" y2="273.69"/><line class="cls-1" x1="200.97" y1="142.33" x2="245.79" y2="271.23"/><line class="cls-1" x1="202.8" y1="139.87" x2="247.62" y2="268.78"/><line class="cls-1" x1="204.63" y1="137.42" x2="249.45" y2="266.33"/><line class="cls-1" x1="206.46" y1="134.97" x2="251.28" y2="263.87"/><line class="cls-1" x1="208.29" y1="132.51" x2="253.11" y2="261.42"/><line class="cls-1" x1="210.12" y1="130.06" x2="254.95" y2="258.96"/><line class="cls-1" x1="211.95" y1="127.6" x2="256.78" y2="256.51"/><line class="cls-1" x1="213.78" y1="125.15" x2="258.61" y2="254.06"/><line class="cls-1" x1="215.61" y1="122.69" x2="260.44" y2="251.6"/><line class="cls-1" x1="217.44" y1="120.24" x2="262.27" y2="249.15"/><line class="cls-1" x1="219.27" y1="117.79" x2="264.1" y2="246.69"/></g><ellipse class="cls-1" cx="214.75" cy="214.47" rx="35.59" ry="50.74" transform="translate(-64.3 95.12) rotate(-21.81)"/></g></g></svg>